name rise45.9887peak57.8056fall74.9286.mot
datacolumns 19
datarows 14
range 7.88330300000000 7.90497400000000
endheader
time	ground_force1_vx	ground_force1_vy	ground_force1_vz	ground_force1_px	ground_force1_py	ground_force1_pz	ground_force2_vx	ground_force2_vy	ground_force2_vz	ground_force2_px	ground_force2_py	ground_force2_pz	ground_torque1_x	ground_torque1_y	ground_torque1_z	ground_torque2_x	ground_torque2_y	ground_torque2_z	
7.88330300000000	-5.92988200000000	46.20508700000000	-8.77372200000000	0.35712200000000	0.00000000000000	0.10487000000000	-45.13506500000000	805.85304399999995	-53.44853100000000	0.16175100000000	0.00000000000000	-0.08704400000000	0.00000000000000	-6.17932000000000	0.00000000000000	0.00000000000000	-23.13338200000000	0.00000000000000	
7.88496800000000	-6.35232300000000	52.98900800000000	-9.65758800000000	0.35852700000000	0.00000000000000	0.10566900000000	-46.08439700000000	803.29789100000005	-53.12885400000000	0.16063100000000	0.00000000000000	-0.08696900000000	0.00000000000000	-6.84758000000000	0.00000000000000	0.00000000000000	-23.09998500000000	0.00000000000000	
7.88663500000000	-6.65501400000000	59.74915000000000	-10.43140900000000	0.35997100000000	0.00000000000000	0.10640700000000	-47.04837500000000	800.59567700000002	-52.78721900000000	0.15951100000000	0.00000000000000	-0.08689100000000	0.00000000000000	-7.45091600000000	0.00000000000000	0.00000000000000	-23.06574300000000	0.00000000000000	
7.88830800000000	-6.82799100000000	66.41891600000000	-11.08108900000000	0.36144800000000	0.00000000000000	0.10709400000000	-48.02578400000000	797.74354000000005	-52.42355800000000	0.15839300000000	0.00000000000000	-0.08681200000000	0.00000000000000	-7.97945600000000	0.00000000000000	0.00000000000000	-23.03056100000000	0.00000000000000	
7.88997300000000	-6.86711400000000	72.95591500000000	-11.59953200000000	0.36295400000000	0.00000000000000	0.10773600000000	-49.01531700000000	794.73865899999998	-52.03782700000000	0.15727800000000	0.00000000000000	-0.08672900000000	0.00000000000000	-8.42793900000000	0.00000000000000	0.00000000000000	-22.99433000000000	0.00000000000000	
7.89163600000000	-6.77356400000000	79.34163300000000	-11.98615700000000	0.36448500000000	0.00000000000000	0.10833900000000	-50.01557200000000	791.57826200000000	-51.63001000000000	0.15616600000000	0.00000000000000	-0.08664500000000	0.00000000000000	-8.79544700000000	0.00000000000000	0.00000000000000	-22.95692700000000	0.00000000000000	
7.89330300000000	-6.55299300000000	85.57919099999999	-12.24596500000000	0.36603700000000	0.00000000000000	0.10890800000000	-51.02505400000000	788.25963300000001	-51.20011600000000	0.15505800000000	0.00000000000000	-0.08655700000000	0.00000000000000	-9.08482800000000	0.00000000000000	0.00000000000000	-22.91821200000000	0.00000000000000	
7.89497100000000	-6.21445700000000	91.68971500000001	-12.38830400000000	0.36760500000000	0.00000000000000	0.10944600000000	-52.04218100000000	784.78012899999999	-50.74818600000000	0.15395700000000	0.00000000000000	-0.08646700000000	0.00000000000000	-9.30190300000000	0.00000000000000	0.00000000000000	-22.87803500000000	0.00000000000000	
7.89663700000000	-5.76926100000000	97.70784900000000	-12.42549400000000	0.36918800000000	0.00000000000000	0.10995600000000	-53.06528200000000	781.13718300000005	-50.27429000000000	0.15286300000000	0.00000000000000	-0.08637400000000	0.00000000000000	-9.45457200000000	0.00000000000000	0.00000000000000	-22.83622800000000	0.00000000000000	
7.89830200000000	-5.22982900000000	103.67694600000000	-12.37145400000000	0.37078100000000	0.00000000000000	0.11044300000000	-54.09260000000000	777.32832099999996	-49.77852700000000	0.15177700000000	0.00000000000000	-0.08627900000000	0.00000000000000	-9.55189500000000	0.00000000000000	0.00000000000000	-22.79261200000000	0.00000000000000	
7.89996900000000	-4.60867700000000	109.64437000000000	-12.24042800000000	0.37238000000000	0.00000000000000	0.11090700000000	-55.12229900000000	773.35116500000004	-49.26103300000000	0.15070000000000	0.00000000000000	-0.08618000000000	0.00000000000000	-9.60324000000000	0.00000000000000	0.00000000000000	-22.74699500000000	0.00000000000000	
7.90163600000000	-3.91756900000000	115.65727900000000	-12.04591400000000	0.37398300000000	0.00000000000000	0.11135100000000	-56.15246000000000	769.20345099999997	-48.72197400000000	0.14963300000000	0.00000000000000	-0.08607800000000	0.00000000000000	-9.61754600000000	0.00000000000000	0.00000000000000	-22.69916900000000	0.00000000000000	
7.90330100000000	-3.16687400000000	121.75912400000000	-11.79983000000000	0.37558700000000	0.00000000000000	0.11177800000000	-57.18109500000000	764.88303599999995	-48.16155200000000	0.14857700000000	0.00000000000000	-0.08597400000000	0.00000000000000	-9.60274200000000	0.00000000000000	0.00000000000000	-22.64891900000000	0.00000000000000	
7.90497400000000	-2.36514800000000	127.98701500000000	-11.51194400000000	0.37718900000000	0.00000000000000	0.11218800000000	-58.20613900000000	760.38790700000004	-47.58000700000000	0.14753400000000	0.00000000000000	-0.08586600000000	0.00000000000000	-9.56534000000000	0.00000000000000	0.00000000000000	-22.59601300000000	0.00000000000000	
